<svg preserveAspectRatio="none" width="100%" height="100%" overflow="visible" style="display: block;" viewBox="0 0 10.5 10.5" fill="none" xmlns="http://www.w3.org/2000/svg">
<g id="Container">
<path id="Icon" d="M2.33333 8.16667H6.41667V7H2.33333V8.16667V8.16667M2.33333 5.83333H8.16667V4.66667H2.33333V5.83333V5.83333M2.33333 3.5H8.16667V2.33333H2.33333V3.5V3.5M1.16667 10.5C0.845833 10.5 0.571181 10.3858 0.342708 10.1573C0.114236 9.92882 0 9.65417 0 9.33333V1.16667C0 0.845833 0.114236 0.571181 0.342708 0.342708C0.571181 0.114236 0.845833 0 1.16667 0H9.33333C9.65417 0 9.92882 0.114236 10.1573 0.342708C10.3858 0.571181 10.5 0.845833 10.5 1.16667V9.33333C10.5 9.65417 10.3858 9.92882 10.1573 10.1573C9.92882 10.3858 9.65417 10.5 9.33333 10.5H1.16667V10.5M1.16667 9.33333H9.33333V9.33333V9.33333V1.16667V1.16667V1.16667H1.16667V1.16667V1.16667V9.33333V9.33333V9.33333V9.33333M1.16667 1.16667V1.16667V1.16667V1.16667V9.33333V9.33333V9.33333V9.33333V9.33333V9.33333V1.16667V1.16667V1.16667V1.16667" fill="var(--fill-0, #0053DB)"/>
</g>
</svg>
