<svg preserveAspectRatio="none" width="100%" height="100%" overflow="visible" style="display: block;" viewBox="0 0 9.91667 11.6667" fill="none" xmlns="http://www.w3.org/2000/svg">
<g id="Container">
<path id="Icon" d="M3.5 9.33333C3.17917 9.33333 2.90451 9.2191 2.67604 8.99063C2.44757 8.76215 2.33333 8.4875 2.33333 8.16667V1.16667C2.33333 0.845833 2.44757 0.571181 2.67604 0.342708C2.90451 0.114236 3.17917 0 3.5 0H8.75C9.07083 0 9.34549 0.114236 9.57396 0.342708C9.80243 0.571181 9.91667 0.845833 9.91667 1.16667V8.16667C9.91667 8.4875 9.80243 8.76215 9.57396 8.99063C9.34549 9.2191 9.07083 9.33333 8.75 9.33333H3.5V9.33333M3.5 8.16667H8.75V8.16667V8.16667V1.16667V1.16667V1.16667H3.5V1.16667V1.16667V8.16667V8.16667V8.16667V8.16667M1.16667 11.6667C0.845833 11.6667 0.571181 11.5524 0.342708 11.324C0.114236 11.0955 0 10.8208 0 10.5V2.33333H1.16667V10.5V10.5V10.5H7.58333V11.6667H1.16667V11.6667M3.5 8.16667V8.16667V8.16667V1.16667V1.16667V1.16667V1.16667V1.16667V1.16667V8.16667V8.16667V8.16667V8.16667V8.16667" fill="var(--fill-0, #566166)"/>
</g>
</svg>
