<svg preserveAspectRatio="none" width="100%" height="100%" overflow="visible" style="display: block;" viewBox="0 0 9.33333 11.6667" fill="none" xmlns="http://www.w3.org/2000/svg">
<g id="Container">
<path id="Icon" d="M2.33333 9.33333H7V8.16667H2.33333V9.33333V9.33333M2.33333 7H7V5.83333H2.33333V7V7M1.16667 11.6667C0.845833 11.6667 0.571181 11.5524 0.342708 11.324C0.114236 11.0955 0 10.8208 0 10.5V1.16667C0 0.845833 0.114236 0.571181 0.342708 0.342708C0.571181 0.114236 0.845833 0 1.16667 0H5.83333L9.33333 3.5V10.5C9.33333 10.8208 9.2191 11.0955 8.99063 11.324C8.76215 11.5524 8.4875 11.6667 8.16667 11.6667H1.16667V11.6667M5.25 4.08333V1.16667H1.16667V1.16667V1.16667V10.5V10.5V10.5H8.16667V10.5V10.5V4.08333H5.25V4.08333M1.16667 1.16667V1.16667V4.08333V4.08333V1.16667V4.08333V4.08333V10.5V10.5V10.5V10.5V10.5V10.5V1.16667V1.16667V1.16667V1.16667" fill="var(--fill-0, #64748B)"/>
</g>
</svg>
