<svg preserveAspectRatio="none" width="100%" height="100%" overflow="visible" style="display: block;" viewBox="0 0 12.5417 9.33333" fill="none" xmlns="http://www.w3.org/2000/svg">
<g id="Container">
<path id="Icon" d="M1.16667 9.33333C0.845833 9.33333 0.571181 9.2191 0.342708 8.99063C0.114236 8.76215 0 8.4875 0 8.16667V1.16667C0 0.845833 0.114236 0.571181 0.342708 0.342708C0.571181 0.114236 0.845833 0 1.16667 0H4.66667L5.83333 1.16667H10.5C10.8208 1.16667 11.0955 1.2809 11.324 1.50937C11.5524 1.73785 11.6667 2.0125 11.6667 2.33333H5.35208L4.18542 1.16667H1.16667V1.16667V1.16667V8.16667V8.16667V8.16667L2.56667 3.5H12.5417L11.0396 8.50208C10.9618 8.75486 10.8184 8.9566 10.6094 9.10729C10.4003 9.25799 10.1694 9.33333 9.91667 9.33333H1.16667V9.33333M2.39167 8.16667H9.91667L10.9667 4.66667H3.44167L2.39167 8.16667V8.16667M2.39167 8.16667L3.44167 4.66667V4.66667L2.39167 8.16667V8.16667V8.16667M1.16667 2.33333V1.16667V1.16667V1.16667V1.16667V2.33333V2.33333V2.33333" fill="var(--fill-0, #0053DB)"/>
</g>
</svg>
