<svg preserveAspectRatio="none" width="100%" height="100%" overflow="visible" style="display: block;" viewBox="0 0 25 25" fill="none" xmlns="http://www.w3.org/2000/svg">
<g id="Container">
<path id="Icon" d="M12.5 25C11.8125 25 11.224 24.7552 10.7344 24.2656C10.2448 23.776 10 23.1875 10 22.5V12.5C10 11.8125 10.2448 11.224 10.7344 10.7344C11.224 10.2448 11.8125 10 12.5 10H22.5C23.1875 10 23.776 10.2448 24.2656 10.7344C24.7552 11.224 25 11.8125 25 12.5V22.5C25 23.1875 24.7552 23.776 24.2656 24.2656C23.776 24.7552 23.1875 25 22.5 25H12.5V25M12.5 22.5H22.5V22.5V22.5V12.5V12.5V12.5H12.5V12.5V12.5V22.5V22.5V22.5V22.5M5 20V7.5C5 6.8125 5.24479 6.22396 5.73438 5.73438C6.22396 5.24479 6.8125 5 7.5 5H20V7.5H7.5V7.5V7.5V20H5V20M0 15V2.5C0 1.8125 0.244792 1.22396 0.734375 0.734375C1.22396 0.244792 1.8125 0 2.5 0H15V2.5H2.5V2.5V2.5V15H0V15M12.5 22.5V22.5V22.5V12.5V12.5V12.5V12.5V12.5V12.5V22.5V22.5V22.5V22.5V22.5" fill="var(--fill-0, #0053DB)"/>
</g>
</svg>
