<svg width="18" height="18" viewBox="0 0 18 18" fill="none" xmlns="http://www.w3.org/2000/svg">
<path d="M15 5L14.2083 3.29167L12.5 2.5L14.2083 1.70833L15 0L15.7917 1.70833L17.5 2.5L15.7917 3.29167L15 5ZM5.41667 5L4.625 3.29167L2.91667 2.5L4.625 1.70833L5.41667 0L6.20833 1.70833L7.91667 2.5L6.20833 3.29167L5.41667 5ZM15 14.5833L14.2083 12.875L12.5 12.0833L14.2083 11.2917L15 9.58333L15.7917 11.2917L17.5 12.0833L15.7917 12.875L15 14.5833ZM2.58333 17.25L0.25 14.9167C0.0833333 14.75 0 14.5486 0 14.3125C0 14.0764 0.0833333 13.875 0.25 13.7083L9.54167 4.41667C9.70833 4.25 9.90972 4.16667 10.1458 4.16667C10.3819 4.16667 10.5833 4.25 10.75 4.41667L13.0833 6.75C13.25 6.91667 13.3333 7.11806 13.3333 7.35417C13.3333 7.59028 13.25 7.79167 13.0833 7.95833L3.79167 17.25C3.625 17.4167 3.42361 17.5 3.1875 17.5C2.95139 17.5 2.75 17.4167 2.58333 17.25ZM3.20833 15.5L9.16667 9.5L8 8.33333L2 14.2917L3.20833 15.5Z" fill="#D97706"/>
</svg>
