<svg width="15" height="15" viewBox="0 0 15 15" fill="none" xmlns="http://www.w3.org/2000/svg">
<path d="M7.5 15C5.40278 15 3.62847 14.6771 2.17708 14.0312C0.725694 13.3854 0 12.5972 0 11.6667V3.33333C0 2.41667 0.732639 1.63194 2.19792 0.979167C3.66319 0.326389 5.43056 0 7.5 0C9.56944 0 11.3368 0.326389 12.8021 0.979167C14.2674 1.63194 15 2.41667 15 3.33333V11.6667C15 12.5972 14.2743 13.3854 12.8229 14.0312C11.3715 14.6771 9.59722 15 7.5 15ZM7.5 5.02083C8.73611 5.02083 9.97917 4.84375 11.2292 4.48958C12.4792 4.13542 13.1806 3.75694 13.3333 3.35417C13.1806 2.95139 12.4826 2.56944 11.2396 2.20833C9.99653 1.84722 8.75 1.66667 7.5 1.66667C6.23611 1.66667 4.99653 1.84375 3.78125 2.19792C2.56597 2.55208 1.86111 2.9375 1.66667 3.35417C1.86111 3.77083 2.56597 4.15278 3.78125 4.5C4.99653 4.84722 6.23611 5.02083 7.5 5.02083ZM7.5 9.16667C8.08333 9.16667 8.64583 9.13889 9.1875 9.08333C9.72917 9.02778 10.2465 8.94792 10.7396 8.84375C11.2326 8.73958 11.6979 8.61111 12.1354 8.45833C12.5729 8.30556 12.9722 8.13194 13.3333 7.9375V5.4375C12.9722 5.63194 12.5729 5.80556 12.1354 5.95833C11.6979 6.11111 11.2326 6.23958 10.7396 6.34375C10.2465 6.44792 9.72917 6.52778 9.1875 6.58333C8.64583 6.63889 8.08333 6.66667 7.5 6.66667C6.91667 6.66667 6.34722 6.63889 5.79167 6.58333C5.23611 6.52778 4.71181 6.44792 4.21875 6.34375C3.72569 6.23958 3.26389 6.11111 2.83333 5.95833C2.40278 5.80556 2.01389 5.63194 1.66667 5.4375V7.9375C2.01389 8.13194 2.40278 8.30556 2.83333 8.45833C3.26389 8.61111 3.72569 8.73958 4.21875 8.84375C4.71181 8.94792 5.23611 9.02778 5.79167 9.08333C6.34722 9.13889 6.91667 9.16667 7.5 9.16667ZM7.5 13.3333C8.13889 13.3333 8.78819 13.2847 9.44792 13.1875C10.1076 13.0903 10.7153 12.9618 11.2708 12.8021C11.8264 12.6424 12.2917 12.4618 12.6667 12.2604C13.0417 12.059 13.2639 11.8542 13.3333 11.6458V9.60417C12.9722 9.79861 12.5729 9.97222 12.1354 10.125C11.6979 10.2778 11.2326 10.4062 10.7396 10.5104C10.2465 10.6146 9.72917 10.6944 9.1875 10.75C8.64583 10.8056 8.08333 10.8333 7.5 10.8333C6.91667 10.8333 6.34722 10.8056 5.79167 10.75C5.23611 10.6944 4.71181 10.6146 4.21875 10.5104C3.72569 10.4062 3.26389 10.2778 2.83333 10.125C2.40278 9.97222 2.01389 9.79861 1.66667 9.60417V11.6667C1.73611 11.875 1.95486 12.0764 2.32292 12.2708C2.69097 12.4653 3.15278 12.6424 3.70833 12.8021C4.26389 12.9618 4.875 13.0903 5.54167 13.1875C6.20833 13.2847 6.86111 13.3333 7.5 13.3333Z" fill="#0053DB"/>
</svg>
