<svg width="13" height="19" viewBox="0 0 13 19" fill="none" xmlns="http://www.w3.org/2000/svg">
<path d="M1.66667 18.3333C1.20833 18.3333 0.815972 18.1701 0.489583 17.8438C0.163194 17.5174 0 17.125 0 16.6667V1.66667C0 1.20833 0.163194 0.815972 0.489583 0.489583C0.815972 0.163194 1.20833 0 1.66667 0H10C10.4583 0 10.8507 0.163194 11.1771 0.489583C11.5035 0.815972 11.6667 1.20833 11.6667 1.66667V4.25C11.9167 4.34722 12.1181 4.5 12.2708 4.70833C12.4236 4.91667 12.5 5.15278 12.5 5.41667V7.08333C12.5 7.34722 12.4236 7.58333 12.2708 7.79167C12.1181 8 11.9167 8.15278 11.6667 8.25V16.6667C11.6667 17.125 11.5035 17.5174 11.1771 17.8438C10.8507 18.1701 10.4583 18.3333 10 18.3333H1.66667ZM1.66667 16.6667H10V1.66667H1.66667V16.6667ZM1.66667 16.6667V1.66667V16.6667ZM5.04167 11.6667L9.16667 7.54167L8 6.375L5.04167 9.33333L3.875 8.16667L2.70833 9.33333L5.04167 11.6667Z" fill="#059669"/>
</svg>
