<svg preserveAspectRatio="none" width="100%" height="100%" overflow="visible" style="display: block;" viewBox="0 0 11.6667 11.0833" fill="none" xmlns="http://www.w3.org/2000/svg">
<g id="Container">
<path id="Icon" d="M3.99583 8.64792L5.83333 7.53958L7.67083 8.6625L7.18958 6.5625L8.80833 5.1625L6.67917 4.97292L5.83333 2.98958L4.9875 4.95833L2.85833 5.14792L4.47708 6.5625L3.99583 8.64792V8.64792M2.23125 11.0833L3.17917 6.98542L0 4.22917L4.2 3.86458L5.83333 0L7.46667 3.86458L11.6667 4.22917L8.4875 6.98542L9.43542 11.0833L5.83333 8.91042L2.23125 11.0833V11.0833M5.83333 5.97917V5.97917V5.97917V5.97917V5.97917V5.97917V5.97917V5.97917V5.97917V5.97917V5.97917V5.97917" fill="var(--fill-0, #2A3439)"/>
</g>
</svg>
