<svg width="300" height="400" xmlns="http://www.w3.org/2000/svg"><style>.eyeball{animation:eyeballAni ease-in 2s infinite}</style><g id="head"><circle cx="150" cy="115" r="105" fill="#3f87ff" stroke="#333" stroke-width="2"/><circle cx="150" cy="130" r="80" fill="#fff" stroke="#333" stroke-width="2"/><g id="eye"><ellipse cx="120" cy="70" rx="30" ry="35" fill="#fff" stroke="#333" stroke-width="2"/><circle class="eyeball" cx="135" cy="85" r="5"/><ellipse cx="180" cy="70" rx="30" ry="35" fill="#fff" stroke="#333" stroke-width="2"/><circle class="eyeball" cx="165" cy="85" r="5"/></g><circle id="nose" cx="150" cy="110" r="15" fill="#c93e01" stroke="#333" stroke-width="2"/><g id="mouth" stroke="#333" stroke-width="2"><path fill="#333" d="M150 125v55"/><path d="M100 157a80 100 0 00100 0" fill="none"/></g><path d="M90 110l40 15m-40 5h40m-40 20l40-15m40-10l40-15m-40 20h40m-40 5l40 15" id="moustache" fill="none" stroke="#333" stroke-width="2"/></g><g id="body" stroke="#333" stroke-width="2"><path d="M80 215l-50 30 15 40 40-20v75h55a15 50 0 0120 0h55v-75l40 20 15-40-50-30z" fill="#3f87ff"/><g id="hand" fill="#fff"><circle cx="40" cy="265" r="25"/><circle cx="260" cy="265" r="25"/></g><path d="M85 340a2 2 0 00-5 20h60a1.5 2 0 000-20zm130 0a2 2 0 015 20h-60a1.5 2 0 010-20z" id="foot" fill="#fff"/><g id="tummy" fill="#fff"><circle cx="150" cy="255" r="58"/><path d="M110 250a40 50 0 0080 0z"/></g></g><g id="neck"><rect x="75" y="195" width="150" height="20" rx="8" ry="8" fill="#c13901" stroke="#333" stroke-width="2"/><g id="ring"><circle cx="150" cy="218" r="15" fill="#f5ed27" stroke="#333" stroke-width="2"/><path fill="none" stroke="#333" stroke-width="2" d="M138 208h24m-27 4h30"/><circle cx="150" cy="220" r="5"/><path fill="none" stroke="#333" stroke-width="2" d="M150 225v8"/></g></g></svg>